<svg width="32" height="32" viewBox="0 0 32 32" fill="none" xmlns="http://www.w3.org/2000/svg">
<circle cx="16" cy="16" r="16" fill="#E7E9ED"/>
<path d="M12.7705 15.8025C12.7705 15.9782 12.8358 16.1289 12.9764 16.2595L16.8838 20.0865C16.9943 20.197 17.1349 20.2573 17.3006 20.2573C17.6321 20.2573 17.8983 19.9961 17.8983 19.6596C17.8983 19.4939 17.828 19.3482 17.7175 19.2327L14.1968 15.8025L17.7175 12.3722C17.828 12.2567 17.8983 12.106 17.8983 11.9453C17.8983 11.6088 17.6321 11.3477 17.3006 11.3477C17.1349 11.3477 16.9943 11.4079 16.8838 11.5184L12.9764 15.3404C12.8358 15.476 12.7705 15.6267 12.7705 15.8025Z" fill="#22242C"/>
</svg>
