<svg width="24" height="24" viewBox="0 0 24 24" fill="none" xmlns="http://www.w3.org/2000/svg">
<path d="M20.1372 12.0263L20.1371 12.0258C19.8814 9.68183 18.6241 7.57197 16.6855 6.22954C16.5828 6.15759 16.558 6.01963 16.6303 5.91597C16.7021 5.81288 16.8404 5.78791 16.9442 5.86027L16.9445 5.86049C18.9952 7.28745 20.3179 9.51656 20.5928 11.9819C20.604 12.1043 20.5195 12.2097 20.4079 12.2301H20.4079H20.4077H20.4076H20.4074H20.4073H20.4071H20.407H20.4068H20.4067H20.4066H20.4064H20.4063H20.4061H20.406H20.4058H20.4057H20.4055H20.4054H20.4052H20.4051H20.4049H20.4048H20.4046H20.4045H20.4043H20.4042H20.4041H20.4039H20.4038H20.4036H20.4035H20.4033H20.4032H20.403H20.4029H20.4027H20.4026H20.4024H20.4023H20.4021H20.402H20.4019H20.4017H20.4016H20.4014H20.4013H20.4011H20.401H20.4008H20.4007H20.4005H20.4004H20.4002H20.4001H20.3999H20.3998H20.3997H20.3995H20.3994H20.3992H20.3991H20.3989H20.3988H20.3986H20.3985H20.3983H20.3982H20.398H20.3979H20.3977H20.3976H20.3975H20.3973H20.3972H20.397H20.3969H20.3967H20.3966H20.3964H20.3963H20.3961H20.396H20.3958H20.3957H20.3955H20.3954H20.3953H20.3951H20.395H20.3948H20.3947H20.3945H20.3944H20.3942H20.3941H20.3939H20.3938H20.3936H20.3935H20.3933H20.3932H20.393H20.3929H20.3928H20.3926H20.3925H20.3923H20.3922H20.392H20.3919H20.3917H20.3916H20.3914H20.3913H20.3911H20.391H20.3908H20.3907H20.3905H20.3904H20.3902H20.3901H20.3899H20.3898H20.3896H20.3895H20.3893H20.3892H20.389H20.3889H20.3887H20.3886H20.3884H20.3883H20.3881H20.388H20.3878H20.3877H20.3876H20.3874H20.3873H20.3871H20.387H20.3868H20.3867H20.3865H20.3864H20.3862H20.386H20.3859H20.3857H20.3856H20.3854H20.3853H20.3851H20.385H20.3848H20.3847H20.3845H20.3844H20.3842H20.3841H20.3839H20.3838H20.3836H20.3835H20.3833H20.3832H20.383H20.3829H20.3827H20.3826H20.3824H20.3823H20.3821H20.382H20.3818H20.3816H20.3815H20.3813H20.3812H20.381H20.3809H20.3807H20.3806H20.3804H20.3803H20.3801H20.38H20.3798H20.3796H20.3795H20.3793H20.3792H20.379H20.3789H20.3787H20.3786H20.3784H20.3782H20.3781H20.3779H20.3778H20.3776H20.3775H20.3773H20.3771H20.377H20.3768H20.3767H20.3765H20.3764H20.3762H20.376H20.3759H20.3757H20.3756H20.3754H20.3753H20.3751H20.3749H20.3748H20.3746H20.3745H20.3743H20.3741H20.374H20.3738H20.3737H20.3735H20.3733H20.3732H20.373H20.3729H20.3727H20.3725H20.3724H20.3722H20.3721H20.3719H20.3717H20.3716H20.3714H20.3712H20.3711H20.3709H20.3708H20.3706H20.3704H20.3703H20.3701H20.3699H20.3698H20.3696H20.3694H20.3693H20.3691H20.3689H20.3688H20.3686H20.3684H20.3683H20.3681H20.368H20.3678H20.3676H20.3675H20.3673H20.3671H20.367H20.3668H20.3666H20.3664H20.3663H20.3661H20.3659H20.3658H20.3656H20.3654H20.3653H20.3651H20.3649H20.3648H20.3646H20.3644H20.3642H20.3641H20.3639H20.3637H20.3636H20.3634H20.3632H20.363H20.3629H20.3627H20.3625H20.3624H20.3622H20.362H20.3618H20.3617H20.3615H20.3613H20.3611H20.361H20.3608H20.3606H20.3604H20.3603H20.3601C20.248 12.2301 20.15 12.145 20.1372 12.0263Z" fill="#1B1B1B" stroke="#22242C"/>
<path d="M7.10868 5.89823L7.10869 5.89824L7.11186 5.89596C7.20199 5.83119 7.34891 5.85081 7.42194 5.94891C7.49279 6.05399 7.46558 6.19339 7.36894 6.26344C5.455 7.62503 4.20765 9.73316 3.97267 12.0688C3.95918 12.1912 3.85629 12.28 3.74004 12.28H3.73993H3.73981H3.73969H3.73957H3.73946H3.73934H3.73922H3.7391H3.73898H3.73886H3.73874H3.73862H3.7385H3.73838H3.73826H3.73814H3.73802H3.7379H3.73778H3.73766H3.73753H3.73741H3.73729H3.73717H3.73705H3.73692H3.7368H3.73668H3.73655H3.73643H3.73631H3.73618H3.73606H3.73593H3.73581H3.73568H3.73556H3.73543H3.73531H3.73518H3.73506H3.73493H3.73481H3.73468H3.73455H3.73443H3.7343H3.73417H3.73404H3.73392H3.73379H3.73366H3.73353H3.73341H3.73328H3.73315H3.73302H3.73289H3.73276H3.73263H3.7325H3.73237H3.73224H3.73211H3.73198H3.73185H3.73172H3.73159H3.73146H3.73133H3.7312H3.73107H3.73094H3.73081H3.73067H3.73054H3.73041H3.73028H3.73015H3.73001H3.72988H3.72975H3.72961H3.72948H3.72935H3.72921H3.72908H3.72895H3.72881H3.72868H3.72854H3.72841H3.72828H3.72814H3.72801H3.72787H3.72774H3.7276H3.72747H3.72733H3.72719H3.72706H3.72692H3.72679H3.72665H3.72651H3.72638H3.72624H3.7261H3.72597H3.72583H3.72569H3.72556H3.72542H3.72528H3.72514H3.72501H3.72487H3.72473H3.72459H3.72445H3.72431H3.72418H3.72404H3.7239H3.72376H3.72362H3.72348H3.72334H3.7232H3.72306H3.72292H3.72278H3.72264H3.7225H3.72237H3.72222H3.72208H3.72194H3.7218H3.72166H3.72152H3.72138H3.72124H3.7211H3.72096H3.72082H3.72068H3.72054H3.72039H3.72025H3.72011H3.71997H3.71983H3.71969H3.71954H3.7194H3.71926H3.71912H3.71898H3.71883H3.71869H3.71855H3.7184H3.71826H3.71812H3.71798H3.71783H3.71769H3.71755H3.7174H3.71726H3.71712H3.71697H3.71683H3.71669H3.71654H3.7164H3.71626H3.71611H3.71597H3.71582H3.71568H3.71554H3.71539H3.71525H3.7151H3.71496H3.71481H3.71467H3.71452H3.71438H3.71424H3.71409H3.71395H3.7138H3.71366H3.71351H3.71337H3.71322H3.71308H3.71293H3.71279H3.71264H3.7125H3.71235H3.7122H3.71206H3.71191H3.71177H3.71162H3.71148H3.71133H3.71119H3.71104H3.71089H3.71075H3.7106H3.71046H3.71031H3.71016H3.71002H3.70987H3.70973H3.70958H3.70943H3.70929H3.70914H3.709H3.70885H3.7087H3.70856H3.70841H3.70827H3.70812H3.70797H3.70783H3.70768H3.70753H3.70739H3.70724H3.70709H3.70695H3.7068H3.70666H3.70651H3.70636H3.70622H3.70607H3.70592H3.70578H3.70563H3.70548H3.70534H3.70519H3.70504H3.7049H3.70475H3.7046H3.70446H3.70431H3.70417H3.70402H3.70387H3.70373H3.70358H3.70343H3.70329H3.70314H3.70299H3.70285H3.7027H3.70255H3.70241H3.70226H3.70222C3.59017 12.2595 3.50552 12.1534 3.5175 12.0303C3.7729 9.56446 5.07658 7.33488 7.10868 5.89823Z" fill="#1B1B1B" stroke="#22242C"/>
<path d="M15.9901 21.1001C14.7601 21.6901 13.4401 21.9901 12.0601 21.9901C10.6201 21.9901 9.2501 21.6701 7.9701 21.0201C7.6101 20.8501 7.4701 20.4101 7.6501 20.0501C7.8201 19.6901 8.2601 19.5501 8.6201 19.7201C9.2501 20.0401 9.9201 20.2601 10.6001 20.3901C11.5201 20.5701 12.4601 20.5801 13.3801 20.4201C14.0601 20.3001 14.7301 20.0901 15.3501 19.7901C15.7201 19.6201 16.1601 19.7601 16.3201 20.1301C16.5001 20.4901 16.3601 20.9301 15.9901 21.1001Z" fill="#1B1B1B"/>
<path d="M12.05 2.01001C10.5 2.01001 9.22998 3.27001 9.22998 4.83001C9.22998 6.39001 10.49 7.65001 12.05 7.65001C13.61 7.65001 14.87 6.39001 14.87 4.83001C14.87 3.27001 13.61 2.01001 12.05 2.01001Z" fill="#1B1B1B"/>
<path d="M5.04998 13.8701C3.49998 13.8701 2.22998 15.1301 2.22998 16.6901C2.22998 18.2501 3.48998 19.5101 5.04998 19.5101C6.60998 19.5101 7.86998 18.2501 7.86998 16.6901C7.86998 15.1301 6.59998 13.8701 5.04998 13.8701Z" fill="#1B1B1B"/>
<path d="M18.9499 13.8701C17.3999 13.8701 16.1299 15.1301 16.1299 16.6901C16.1299 18.2501 17.3899 19.5101 18.9499 19.5101C20.5099 19.5101 21.7699 18.2501 21.7699 16.6901C21.7699 15.1301 20.5099 13.8701 18.9499 13.8701Z" fill="#1B1B1B"/>
</svg>
