<svg width="24" height="24" viewBox="0 0 24 24" fill="none" xmlns="http://www.w3.org/2000/svg">
<path d="M11.8748 3.42873L11.8748 3.42874L11.8769 3.4256C12.0219 3.20647 12.3004 2.98901 12.6515 2.8649C12.9983 2.74234 13.3703 2.72683 13.6949 2.84811L13.7026 2.85097L13.7103 2.85359C14.4626 3.1069 14.9549 3.96685 14.801 4.68497L14.7982 4.69802L14.7961 4.71121L14.2761 7.98121L14.2759 7.98118L14.2743 7.99365C14.2166 8.42659 14.3328 8.835 14.5913 9.15433L14.599 9.16393L14.6073 9.17313C14.8679 9.46443 15.2514 9.64973 15.6699 9.64973H19.7799C20.4351 9.64973 20.9506 9.91201 21.242 10.3189C21.5132 10.7054 21.5835 11.2307 21.3783 11.8137L21.3782 11.8136L21.3749 11.8237L18.9149 19.3137L18.9092 19.3309L18.9048 19.3485C18.6545 20.3499 17.5174 21.2197 16.3899 21.2197H12.4899C12.2056 21.2197 11.8512 21.1699 11.523 21.0719C11.1844 20.9708 10.9335 20.8362 10.8034 20.7062L10.781 20.6837L10.7558 20.6642L9.47579 19.6742L9.47581 19.6742L9.47119 19.6707C9.10865 19.397 8.88989 18.9559 8.88989 18.4897V8.32973C8.88989 8.02994 8.97982 7.73656 9.14539 7.48788C9.14556 7.48761 9.14574 7.48735 9.14592 7.48708L11.8748 3.42873Z" fill="#22242C" stroke="#22242C"/>
<path d="M4.18 6.87988H5.21C5.93877 6.87988 6.32401 7.02437 6.53617 7.22671C6.74247 7.42346 6.89 7.7763 6.89 8.45988V18.5199C6.89 19.2035 6.74247 19.5563 6.53617 19.7531C6.32401 19.9554 5.93877 20.0999 5.21 20.0999H4.18C3.45123 20.0999 3.06599 19.9554 2.85383 19.7531C2.64753 19.5563 2.5 19.2035 2.5 18.5199V8.45988C2.5 7.7763 2.64753 7.42346 2.85383 7.22671C3.06599 7.02437 3.45123 6.87988 4.18 6.87988Z" fill="#22242C" stroke="#22242C"/>
</svg>
