<svg width="18" height="17" viewBox="0 0 18 17" fill="none" xmlns="http://www.w3.org/2000/svg">
<path d="M9 16.9736C7.84342 16.9736 6.75326 16.7523 5.72949 16.3096C4.71126 15.8669 3.81201 15.2554 3.03174 14.4751C2.25146 13.6948 1.63997 12.7956 1.19727 11.7773C0.754557 10.7536 0.533203 9.66341 0.533203 8.50684C0.533203 7.35026 0.754557 6.26286 1.19727 5.24463C1.63997 4.22087 2.2487 3.31885 3.02344 2.53857C3.80371 1.7583 4.70296 1.14681 5.72119 0.704102C6.74495 0.261393 7.83512 0.0400391 8.9917 0.0400391C10.1483 0.0400391 11.2384 0.261393 12.2622 0.704102C13.286 1.14681 14.188 1.7583 14.9683 2.53857C15.7485 3.31885 16.36 4.22087 16.8027 5.24463C17.2454 6.26286 17.4668 7.35026 17.4668 8.50684C17.4668 9.66341 17.2454 10.7536 16.8027 11.7773C16.36 12.7956 15.7485 13.6948 14.9683 14.4751C14.188 15.2554 13.286 15.8669 12.2622 16.3096C11.244 16.7523 10.1566 16.9736 9 16.9736ZM8.06201 12.5576C8.20589 12.5576 8.33594 12.5244 8.45215 12.458C8.56836 12.3916 8.67074 12.292 8.75928 12.1592L12.6606 6.0083C12.7104 5.92529 12.7575 5.83675 12.8018 5.74268C12.846 5.6486 12.8682 5.55452 12.8682 5.46045C12.8682 5.26676 12.7962 5.11458 12.6523 5.00391C12.5085 4.8877 12.348 4.82959 12.1709 4.82959C11.9274 4.82959 11.7282 4.95687 11.5732 5.21143L8.02881 10.9058L6.34375 8.73096C6.23861 8.59261 6.13623 8.49854 6.03662 8.44873C5.94255 8.39893 5.83464 8.37402 5.71289 8.37402C5.52474 8.37402 5.36702 8.4432 5.23975 8.58154C5.11247 8.71436 5.04883 8.87484 5.04883 9.06299C5.04883 9.15706 5.06543 9.25114 5.09863 9.34521C5.13737 9.43376 5.18717 9.51953 5.24805 9.60254L7.33154 12.1592C7.44222 12.3031 7.55566 12.4054 7.67188 12.4663C7.78809 12.5272 7.91813 12.5576 8.06201 12.5576Z" fill="#FAFAFA"/>
</svg>
