<svg width="24" height="24" viewBox="0 0 24 24" fill="none" xmlns="http://www.w3.org/2000/svg">
<path d="M1.5 18C1.5 15.5068 3.51549 13.5 6 13.5C8.49321 13.5 10.5 15.5155 10.5 18C10.5 20.4839 8.48386 22.5 6 22.5C3.51549 22.5 1.5 20.4932 1.5 18ZM6 15.46H3.96C3.29908 15.46 2.78 15.9987 2.78 16.64C2.78 17.2813 3.29908 17.82 3.96 17.82H6C6.66092 17.82 7.18 17.2813 7.18 16.64C7.18 15.9987 6.66092 15.46 6 15.46ZM3.96 20.54H8.04C8.69139 20.54 9.23 20.0109 9.23 19.36C9.23 18.7187 8.71092 18.18 8.05 18.18H3.96C3.31386 18.18 2.78 18.7139 2.78 19.36C2.78 20.0013 3.29908 20.54 3.96 20.54Z" fill="#22242C" stroke="#22242C"/>
<path d="M17 3H7C4 3 2 4.5 2 8V11.14C2 11.87 2.75 12.33 3.42 12.04C4.52 11.56 5.77 11.38 7.08 11.59C9.7 12.02 11.84 14.09 12.37 16.69C12.52 17.45 12.54 18.19 12.44 18.9C12.36 19.49 12.84 20.01 13.43 20.01H17C20 20.01 22 18.51 22 15.01V8C22 4.5 20 3 17 3ZM17.47 8.59L14.34 11.09C13.68 11.62 12.84 11.88 12 11.88C11.16 11.88 10.31 11.62 9.66 11.09L6.53 8.59C6.21 8.33 6.16 7.85 6.41 7.53C6.67 7.21 7.14 7.15 7.46 7.41L10.59 9.91C11.35 10.52 12.64 10.52 13.4 9.91L16.53 7.41C16.85 7.15 17.33 7.2 17.58 7.53C17.84 7.85 17.79 8.33 17.47 8.59Z" fill="#22242C"/>
</svg>
