<svg width="33" height="32" viewBox="0 0 33 32" fill="none" xmlns="http://www.w3.org/2000/svg">
<circle cx="16.5" cy="16" r="16" fill="#E7E9ED"/>
<path d="M21.8999 14.1463C20.6933 14.1463 20.1999 13.293 20.7999 12.2463C21.1466 11.6396 20.9399 10.8663 20.3333 10.5196L19.1799 9.85963C18.6533 9.5463 17.9733 9.73297 17.6599 10.2596L17.5866 10.3863C16.9866 11.433 15.9999 11.433 15.3933 10.3863L15.3199 10.2596C15.0199 9.73297 14.3399 9.5463 13.8133 9.85963L12.6599 10.5196C12.0533 10.8663 11.8466 11.6463 12.1933 12.253C12.7999 13.293 12.3066 14.1463 11.0999 14.1463C10.4066 14.1463 9.83325 14.713 9.83325 15.413V16.5863C9.83325 17.2796 10.3999 17.853 11.0999 17.853C12.3066 17.853 12.7999 18.7063 12.1933 19.753C11.8466 20.3596 12.0533 21.133 12.6599 21.4796L13.8133 22.1396C14.3399 22.453 15.0199 22.2663 15.3333 21.7396L15.4066 21.613C16.0066 20.5663 16.9933 20.5663 17.5999 21.613L17.6733 21.7396C17.9866 22.2663 18.6666 22.453 19.1933 22.1396L20.3466 21.4796C20.9533 21.133 21.1599 20.353 20.8133 19.753C20.2066 18.7063 20.6999 17.853 21.9066 17.853C22.5999 17.853 23.1733 17.2863 23.1733 16.5863V15.413C23.1666 14.7196 22.5999 14.1463 21.8999 14.1463ZM16.4999 18.1663C15.3066 18.1663 14.3333 17.193 14.3333 15.9996C14.3333 14.8063 15.3066 13.833 16.4999 13.833C17.6933 13.833 18.6666 14.8063 18.6666 15.9996C18.6666 17.193 17.6933 18.1663 16.4999 18.1663Z" fill="#22242C"/>
</svg>
