<svg width="111" height="32" viewBox="0 0 111 32" fill="none" xmlns="http://www.w3.org/2000/svg">
<rect width="111" height="32" rx="16" fill="url(#paint0_linear_22454_941)"/>
<path d="M18.2156 22.1953C14.9266 22.1953 12.8797 19.9609 12.8797 16.3203V16.3125C12.8797 12.7344 14.9266 10.5312 18.1766 10.5312C20.8484 10.5312 22.5828 12.0781 23.0125 14.1562L23.0438 14.2812H20.9969L20.9734 14.1953C20.5438 12.9844 19.5672 12.2812 18.1844 12.2812C16.1531 12.2812 14.9344 13.7656 14.9344 16.2969V16.3047C14.9344 18.8906 16.2078 20.4453 18.2391 20.4453C19.9422 20.4453 21.1141 19.3984 21.1531 17.8203L21.1609 17.6484H18.3641V16.0781H23.1297V17.2969C23.1297 20.3594 21.3016 22.1953 18.2156 22.1953ZM24.8781 22V10.7266H32.175V12.4219H26.8938V15.4609H31.8859V17.0938H26.8938V20.3047H32.175V22H24.8781ZM36.7828 22V12.4219H33.4078V10.7266H42.1578V12.4219H38.7906V22H36.7828ZM46.9438 22V10.7266H51.2875C53.5688 10.7266 55.1234 12.2344 55.1234 14.4922V14.5078C55.1234 16.7578 53.5688 18.2734 51.2875 18.2734H48.9594V22H46.9438ZM50.7875 12.375H48.9594V16.6484H50.7875C52.2328 16.6484 53.0766 15.8672 53.0766 14.5156V14.5C53.0766 13.1484 52.2328 12.375 50.7875 12.375ZM56.7 22V10.7266H61.2C63.6063 10.7266 65.075 12.0625 65.075 14.2422V14.2578C65.075 15.7734 64.2625 17 62.95 17.4766L65.4109 22H63.1141L60.8953 17.7812H58.7156V22H56.7ZM58.7156 16.1875H60.9891C62.2625 16.1875 63.0125 15.4844 63.0125 14.2734V14.2578C63.0125 13.0781 62.2156 12.3594 60.95 12.3594H58.7156V16.1875ZM71.7687 22.1953C68.4719 22.1953 66.4172 19.9531 66.4172 16.3672V16.3516C66.4172 12.7734 68.4875 10.5312 71.7687 10.5312C75.0578 10.5312 77.1125 12.7734 77.1125 16.3516V16.3672C77.1125 19.9531 75.0656 22.1953 71.7687 22.1953ZM71.7687 20.4453C73.8078 20.4453 75.0656 18.8516 75.0656 16.3672V16.3516C75.0656 13.8516 73.7844 12.2812 71.7687 12.2812C69.7609 12.2812 68.4719 13.8438 68.4719 16.3516V16.3672C68.4719 18.875 69.7531 20.4453 71.7687 20.4453Z" fill="white"/>
<path d="M92.1455 24.9053C92.0404 24.9053 91.9491 24.8693 91.8716 24.7974C91.7996 24.7254 91.7554 24.6341 91.7388 24.5234C91.6115 23.6159 91.4731 22.8522 91.3237 22.2324C91.1743 21.6126 90.9779 21.1063 90.7344 20.7134C90.4964 20.3149 90.1782 19.9967 89.7798 19.7588C89.3869 19.5153 88.8833 19.3216 88.269 19.1777C87.6548 19.0339 86.8994 18.9038 86.0029 18.7876C85.8867 18.771 85.7926 18.7267 85.7207 18.6548C85.6488 18.5773 85.6128 18.4832 85.6128 18.3726C85.6128 18.2619 85.6488 18.1706 85.7207 18.0986C85.7926 18.0212 85.8867 17.9741 86.0029 17.9575C86.9049 17.8579 87.6631 17.7389 88.2773 17.6006C88.8916 17.4622 89.3979 17.2741 89.7964 17.0361C90.1948 16.7926 90.513 16.4689 90.751 16.0649C90.9945 15.661 91.1882 15.1463 91.332 14.521C91.4814 13.8957 91.617 13.1292 91.7388 12.2217C91.7554 12.111 91.7996 12.0225 91.8716 11.9561C91.9491 11.8841 92.0404 11.8481 92.1455 11.8481C92.2507 11.8481 92.3392 11.8841 92.4111 11.9561C92.4886 12.0225 92.5356 12.111 92.5522 12.2217C92.674 13.1292 92.8068 13.8957 92.9507 14.521C93.1001 15.1463 93.2938 15.661 93.5317 16.0649C93.7752 16.4689 94.0962 16.7926 94.4946 17.0361C94.8931 17.2741 95.3994 17.4622 96.0137 17.6006C96.6279 17.7389 97.3861 17.8579 98.2881 17.9575C98.4043 17.9741 98.4984 18.0212 98.5703 18.0986C98.6423 18.1706 98.6782 18.2619 98.6782 18.3726C98.6782 18.4832 98.6423 18.5773 98.5703 18.6548C98.4984 18.7267 98.4043 18.771 98.2881 18.7876C97.3861 18.8872 96.6279 19.0062 96.0137 19.1445C95.3994 19.2829 94.8931 19.4738 94.4946 19.7173C94.0962 19.9552 93.7752 20.2762 93.5317 20.6802C93.2938 21.0841 93.1001 21.5988 92.9507 22.2241C92.8068 22.8494 92.674 23.6159 92.5522 24.5234C92.5356 24.6341 92.4886 24.7254 92.4111 24.7974C92.3392 24.8693 92.2507 24.9053 92.1455 24.9053ZM86.5176 15.7163C86.3516 15.7163 86.2575 15.6278 86.2354 15.4507C86.1689 14.8973 86.097 14.4629 86.0195 14.1475C85.9476 13.832 85.8286 13.5941 85.6626 13.4336C85.5021 13.2731 85.2586 13.1514 84.9321 13.0684C84.6112 12.9854 84.1685 12.8996 83.604 12.811C83.4159 12.7834 83.3218 12.6893 83.3218 12.5288C83.3218 12.3739 83.4048 12.2798 83.5708 12.2466C84.1408 12.1414 84.589 12.0474 84.9155 11.9644C85.242 11.8758 85.4883 11.7541 85.6543 11.5991C85.8203 11.4442 85.9421 11.2145 86.0195 10.9102C86.097 10.6003 86.1689 10.1659 86.2354 9.60693C86.2575 9.42985 86.3516 9.34131 86.5176 9.34131C86.6836 9.34131 86.7777 9.42708 86.7998 9.59863C86.8717 10.1631 86.9437 10.6058 87.0156 10.9268C87.0931 11.2477 87.2121 11.4884 87.3726 11.6489C87.5386 11.8094 87.7848 11.9312 88.1113 12.0142C88.4378 12.0916 88.8888 12.1691 89.4644 12.2466C89.5363 12.2576 89.5944 12.2881 89.6387 12.3379C89.6885 12.3877 89.7134 12.4513 89.7134 12.5288C89.7134 12.6838 89.6304 12.7778 89.4644 12.811C88.8888 12.9217 88.4378 13.0213 88.1113 13.1099C87.7904 13.1929 87.5469 13.3146 87.3809 13.4751C87.2204 13.63 87.1014 13.8625 87.0239 14.1724C86.9465 14.4823 86.8717 14.9139 86.7998 15.4673C86.7887 15.5392 86.7583 15.6001 86.7085 15.6499C86.6587 15.6942 86.5951 15.7163 86.5176 15.7163ZM90.5352 10.0054C90.4411 10.0054 90.383 9.95557 90.3608 9.85596C90.2944 9.50732 90.2363 9.23617 90.1865 9.04248C90.1367 8.8488 90.062 8.70215 89.9624 8.60254C89.8628 8.4974 89.7134 8.41715 89.5142 8.36182C89.3149 8.30094 89.0355 8.23454 88.6758 8.1626C88.5706 8.14046 88.5181 8.08236 88.5181 7.98828C88.5181 7.89421 88.5706 7.8361 88.6758 7.81396C89.0355 7.74202 89.3122 7.67839 89.5059 7.62305C89.7051 7.56217 89.8517 7.48193 89.9458 7.38232C90.0454 7.27718 90.1201 7.12777 90.1699 6.93408C90.2253 6.73486 90.2889 6.4637 90.3608 6.12061C90.383 6.021 90.4411 5.97119 90.5352 5.97119C90.6292 5.97119 90.6873 6.021 90.7095 6.12061C90.7814 6.4637 90.8423 6.73486 90.8921 6.93408C90.9474 7.12777 91.0221 7.27718 91.1162 7.38232C91.2158 7.48193 91.3625 7.56217 91.5562 7.62305C91.7554 7.67839 92.0348 7.74202 92.3945 7.81396C92.4997 7.8361 92.5522 7.89421 92.5522 7.98828C92.5522 8.08236 92.4997 8.14046 92.3945 8.1626C92.0348 8.23454 91.7554 8.30094 91.5562 8.36182C91.3569 8.41715 91.2075 8.49463 91.1079 8.59424C91.0083 8.69385 90.9308 8.84326 90.8755 9.04248C90.8257 9.23617 90.7703 9.50732 90.7095 9.85596C90.6873 9.95557 90.6292 10.0054 90.5352 10.0054Z" fill="white"/>
<defs>
<linearGradient id="paint0_linear_22454_941" x1="111" y1="16" x2="0" y2="16" gradientUnits="userSpaceOnUse">
<stop stop-color="#232120"/>
<stop offset="0.49995" stop-color="#565150"/>
<stop offset="0.9999" stop-color="#89817F"/>
</linearGradient>
</defs>
</svg>
