<svg width="24" height="24" viewBox="0 0 24 24" fill="none" xmlns="http://www.w3.org/2000/svg">
<path d="M11.6319 13.5719L11.6319 13.5719L11.6364 13.5692L12.406 13.1095C12.4061 13.1094 12.4062 13.1094 12.4063 13.1093C13.0778 12.7089 13.5 11.9656 13.5 11.18V10.25C13.5 9.54672 12.9087 9.01 12.24 9.01C11.5539 9.01 10.99 9.57386 10.99 10.26V11.0455L10.3541 11.4304C9.74754 11.7871 9.57637 12.5561 9.91811 13.1419L9.91804 13.142L9.9229 13.15C10.1571 13.5347 10.5722 13.75 10.99 13.75C11.2298 13.75 11.4458 13.6805 11.6319 13.5719ZM9.25 11.5C9.25 9.98614 10.4861 8.75 12 8.75C13.5139 8.75 14.75 9.98614 14.75 11.5C14.75 13.0139 13.5139 14.25 12 14.25C10.4861 14.25 9.25 13.0139 9.25 11.5Z" fill="#22242C" stroke="#22242C"/>
<path d="M18.54 4.16989L13.04 2.10989C12.47 1.89989 11.54 1.89989 10.97 2.10989L5.47005 4.16989C4.41005 4.56989 3.55005 5.80989 3.55005 6.93989V15.0399C3.55005 15.8499 4.08005 16.9199 4.73005 17.3999L10.23 21.5099C11.2 22.2399 12.79 22.2399 13.76 21.5099L19.26 17.3999C19.91 16.9099 20.4401 15.8499 20.4401 15.0399V6.93989C20.4501 5.80989 19.59 4.56989 18.54 4.16989ZM12 16.2499C9.38005 16.2499 7.25005 14.1199 7.25005 11.4999C7.25005 8.87989 9.38005 6.74989 12 6.74989C14.62 6.74989 16.75 8.87989 16.75 11.4999C16.75 14.1199 14.62 16.2499 12 16.2499Z" fill="#22242C"/>
</svg>
