<svg width="24" height="24" viewBox="0 0 24 24" fill="none" xmlns="http://www.w3.org/2000/svg">
<path d="M17.4242 17.7004C19.7747 17.7004 21.6279 15.9753 21.6279 13.8207C21.6279 12.2236 20.7163 10.7998 19.2172 10.1745C19.2247 6.76182 16.7688 4.30591 13.6123 4.30591C11.6084 4.30591 10.1017 5.34553 9.15998 6.70909C7.24648 6.19681 5.23504 7.62064 5.1597 9.74508C3.43454 10.054 2.37231 11.6059 2.37231 13.4892C2.37231 15.7869 4.37622 17.7004 7.01294 17.7004H17.4242ZM15.3073 11.8997C15.3073 13.6399 13.9136 15.0411 12.1884 15.0411C10.4708 15.0411 9.08465 13.6399 9.08465 11.9147C9.08465 11.6285 9.32572 11.3949 9.61199 11.3949C9.91333 11.3949 10.1544 11.6285 10.1544 11.9147C10.1544 13.0523 11.0584 13.9714 12.1884 13.9714C13.3335 13.9714 14.2375 13.0523 14.2375 11.9147C14.2375 10.8374 13.4013 9.95602 12.3466 9.92589C12.2713 9.91835 12.1884 9.91835 12.1206 9.91835L12.6706 10.4758C12.7459 10.5587 12.7911 10.6717 12.7911 10.7922C12.7911 11.0785 12.5726 11.2819 12.2939 11.2819C12.1734 11.2819 12.0378 11.2216 11.9549 11.1388L10.6441 9.82042C10.4482 9.63208 10.4557 9.28554 10.6365 9.10474L11.9398 7.77131C12.0302 7.68091 12.1658 7.61311 12.3014 7.61311C12.5877 7.61311 12.7911 7.83911 12.7911 8.09525C12.7911 8.23085 12.7384 8.35892 12.6631 8.43426L12.2562 8.85613C12.309 8.85613 12.3768 8.8486 12.437 8.85613C13.9588 8.90887 15.3073 10.2272 15.3073 11.8997Z" fill="#22242C"/>
</svg>
