<svg width="56" height="56" viewBox="0 0 56 56" fill="none" xmlns="http://www.w3.org/2000/svg">
<rect width="56" height="56" rx="28" fill="#E7E9ED"/>
<path d="M33.9972 23.9844L33.9992 23.9846C34.0007 23.9847 34.0015 23.9849 34.0017 23.985L34.0023 23.9852C34.0025 23.9854 34.0033 23.9858 34.0042 23.9868H34.0042H34.0041H34.004H34.0038H34.0037H34.0036H34.0035H34.0034H34.0033H34.0032H34.003H34.0029H34.0028H34.0027H34.0026H34.0025H34.0024H34.0023H34.0021H34.002H34.0019H34.0018H34.0017H34.0016H34.0015H34.0014H34.0013H34.0011H34.001H34.0009H34.0008H34.0007H34.0006H34.0005H34.0004H34.0003H34.0002H34H33.9999H33.9998H33.9997H33.9996H33.9995H33.9994H33.9993H33.9992H33.9991H33.999H33.9989H33.9987H33.9986H33.9985H33.9984H33.9983H33.9982H33.9981H33.998H33.9979H33.9978H33.9977H33.9976H33.9975H33.9974H33.9972H33.9971H33.997H33.9969H33.9968H33.9967H33.9966H33.9965H33.9964H33.9963H33.9962H33.9961H33.996H33.9959H33.9958H33.9957H33.9956H33.9954H33.9953H33.9952H33.9951H33.995H33.9949H33.9948H33.9947H33.9946H33.9945H33.9944H33.9943H33.9942H33.9941H33.994H33.9939H33.9938H33.9937H33.9936H33.9935H33.9934H33.9933H33.9932H33.9931H33.993H33.9929H33.9928H33.9927H33.9925H33.9924H33.9923H33.9922H33.9921H33.992H33.9919H33.9918H33.9917H33.9916H33.9915H33.9914H33.9913H33.9912H33.9911H33.991H33.9909H33.9908H33.9907H33.9906H33.9905H33.9904H33.9903H33.9902H33.9901H33.99H33.9899H33.9898H33.9897H33.9896H33.9895H33.9894H33.9893H33.9892H33.9891H33.989H33.9889H33.9888H33.9887H33.9886H33.9885H33.9884H33.9883H33.9882H33.9881H33.988H33.9879H33.9878H33.9877H33.9876H33.9875H33.9874H33.9873H33.9872H33.9871H33.987H33.9869H33.9868H33.9867H33.9866H33.9865H33.9864H33.9863H33.9862H33.9861H33.986H33.9859H33.9858H33.9857H33.9856H33.9855H33.9854H33.9853H33.9852H33.9851H33.985H33.9849H33.9848H33.9847H33.9846H33.9845H33.9844H33.9843H33.9842H33.9841H33.9841H33.984H33.9839H33.9838H33.9837H33.9836H33.9835H33.9834H33.9833H33.9832H33.9831H33.983H33.9829H33.9828H33.9827H33.9826H33.9825H33.9824H33.9823H33.9822H33.9821H33.982H33.9819H33.9818H33.9817H33.9816H33.9815H33.9814H33.9813H33.9812H33.9811H33.981H33.9809H33.9808H33.9807H33.9806H33.9805H33.9804H33.9803H33.9802H33.9801H33.98H33.9799H33.9798H33.9797H33.9796H33.9796H33.9795H33.9794H33.9793H33.9792H33.9791H33.979H33.9789H33.9788H33.9787H33.9786H33.9785H33.9784H33.9783H33.9782C33.4431 23.9335 32.9079 23.8851 32.3728 23.8427C32.9151 23.8837 33.4562 23.9306 33.9972 23.9844ZM30.3199 23.7107C28.7 23.6324 27.081 23.6189 25.4647 23.6957L25.6023 23.6869L25.6667 23.2944L25.8066 22.4415C25.8066 22.4414 25.8066 22.4413 25.8067 22.4413C25.8633 22.098 25.9146 21.8515 26.0623 21.6694C26.1824 21.5215 26.4406 21.3335 27.1199 21.3335H28.8666C29.5427 21.3335 29.8035 21.5274 29.9263 21.6816C30.0768 21.8707 30.1267 22.1218 30.1798 22.4473L30.1798 22.4473L30.1803 22.4503L30.3199 23.2755V23.7107Z" fill="#22242C" stroke="#22242C"/>
<path d="M32.2135 25.6665C32.3016 25.6665 32.3899 25.7024 32.4558 25.769C32.5179 25.8385 32.5529 25.932 32.5476 26.0312C32.5476 26.0315 32.5476 26.0318 32.5476 26.0321L32.1346 32.8601C32.0959 33.398 32.052 33.8143 31.8281 34.1207C31.6355 34.3842 31.2183 34.6732 30.1402 34.6732H25.8602C24.783 34.6732 24.3654 34.3831 24.1725 34.1185C23.9482 33.811 23.9044 33.3943 23.8657 32.86L23.4527 26.0246C23.4527 26.0244 23.4527 26.0242 23.4526 26.024C23.4476 25.9321 23.4823 25.8366 23.5481 25.765C23.6007 25.7079 23.6908 25.6665 23.7868 25.6665H32.2135ZM26.8868 32.3332H29.1068C29.6563 32.3332 30.1068 31.8826 30.1068 31.3332C30.1068 30.7837 29.6563 30.3332 29.1068 30.3332H26.8868C26.3373 30.3332 25.8868 30.7837 25.8868 31.3332C25.8868 31.8826 26.3374 32.3332 26.8868 32.3332ZM26.3335 29.6665H29.6668C30.2163 29.6665 30.6668 29.216 30.6668 28.6665C30.6668 28.117 30.2163 27.6665 29.6668 27.6665H26.3335C25.784 27.6665 25.3335 28.117 25.3335 28.6665C25.3335 29.216 25.784 29.6665 26.3335 29.6665Z" fill="#22242C" stroke="#22242C"/>
</svg>
